<svg width="33" height="33" viewBox="0 0 33 33" fill="none" xmlns="http://www.w3.org/2000/svg">
<circle cx="16.5" cy="16.5" r="16.5" fill="#EEEEEE"/>
<path d="M26.4221 22.3027C26.0613 23.1439 25.6154 23.946 25.0916 24.6966C24.3918 25.6962 23.8171 26.3869 23.3766 26.7713C22.6924 27.3994 21.9574 27.7226 21.1716 27.7409C20.6086 27.7409 19.9284 27.5806 19.1361 27.2548C18.3411 26.9303 17.6113 26.7713 16.9428 26.7713C16.243 26.7713 15.4924 26.9303 14.6883 27.2548C13.8855 27.5806 13.2366 27.7513 12.74 27.7669C11.9881 27.7995 11.2362 27.4685 10.4868 26.7713C10.0086 26.3543 9.41042 25.6375 8.69237 24.6237C7.92349 23.5433 7.29145 22.2858 6.79624 20.8562C6.26585 19.3093 6 17.8132 6 16.3641C6 14.7052 6.35837 13.273 7.07643 12.074C7.61952 11.1325 8.39596 10.3466 9.33093 9.79217C10.2529 9.23919 11.3054 8.94144 12.3804 8.92947C12.9798 8.92947 13.7656 9.11452 14.7391 9.47941C15.7126 9.8443 16.3381 10.0294 16.6105 10.0294C16.8164 10.0294 17.5084 9.81172 18.6865 9.38037C19.7981 8.98029 20.7364 8.81479 21.5052 8.87995C23.5903 9.04806 25.1554 9.86906 26.1967 11.3495C24.3331 12.4793 23.4118 14.0601 23.43 16.0891C23.4457 17.6699 24.0204 18.9848 25.1463 20.0287C25.6441 20.505 26.2249 20.8862 26.86 21.1533C26.7219 21.5534 26.5759 21.9352 26.4221 22.3027ZM21.6434 3.49651C21.6434 4.73453 21.1899 5.89176 20.2894 6.96167C19.1999 8.23357 17.8837 8.96987 16.4567 8.85388C16.4381 8.6982 16.4289 8.54153 16.4293 8.38474C16.4293 7.19494 16.9454 5.92303 17.8668 4.88179C18.3255 4.35531 18.9093 3.91614 19.6169 3.56688C20.3232 3.22284 20.9905 3.03258 21.6186 3C21.6356 3.16681 21.6434 3.33231 21.6434 3.49651Z" fill="black"/>
</svg>
